<?xml version="1.0" standalone="no"?><!DOCTYPE svg PUBLIC "-//W3C//DTD SVG 1.1//EN" "http://www.w3.org/Graphics/SVG/1.1/DTD/svg11.dtd"><svg class="icon" width="200px" height="200.00px" viewBox="0 0 1024 1024" version="1.1" xmlns="http://www.w3.org/2000/svg"><path label-width="8em" d="M512 144.14c5.27 3.54 11 7.25 17.2 11.07 49.37 30.51 104.06 54.33 162.57 70.81 83.62 23.55 152.69 30.87 200.48 32.35-4.17 53.1-12.91 136.35-31.2 244.79-8 47.65-20.52 92.8-37.11 134.2a523.58 523.58 0 0 1-53.79 101.47c-46.44 67.67-94.07 99.75-118.32 112.84-41.51 22.41-77.32 33.26-100.06 38.41-22.93 5.2-37.6 5.83-39.77 5.9s-16.84-0.7-39.77-5.9c-22.74-5.16-58.55-16-100.06-38.42-24.26-13.1-71.88-45.17-118.32-112.84a523.58 523.58 0 0 1-53.79-101.47C183.47 596 171 550.81 162.95 503.17c-18.29-108.45-27-191.69-31.2-244.79 47.79-1.48 116.86-8.8 200.48-32.35 58.5-16.48 113.2-40.3 162.56-70.81a567.13 567.13 0 0 0 17.2-11.07M512 64s-69.89 64.58-197.12 100.42c-88.89 25-159.37 30.27-202.7 30.27C81.12 194.68 64 192 64 192s1.19 116.36 35.84 321.81c37 219.43 152.32 345.81 241.92 394.19 95.56 51.6 167.95 52 170.19 52h0.11c2.23 0 74.62-0.4 170.19-52 89.6-48.38 204.92-174.75 241.92-394.19C958.81 308.36 960 192 960 192s-17.12 2.68-48.18 2.68c-43.34 0-113.8-5.23-202.7-30.27C581.89 128.58 512 64 512 64zM704 320L448 576 317.63 448 256 512l192 192 320-320-64-64z" /></svg>