<?xml version="1.0" standalone="no"?><!DOCTYPE svg PUBLIC "-//W3C//DTD SVG 1.1//EN" "http://www.w3.org/Graphics/SVG/1.1/DTD/svg11.dtd"><svg class="icon" width="200px" height="199.80px" viewBox="0 0 1025 1024" version="1.1" xmlns="http://www.w3.org/2000/svg"><path fill="#333333" d="M512 608c86.49-20.16 150.86-103.2 150.86-192v-96L512 256l-150.86 64v96c0 88.8 64.37 171.84 150.86 192zM394.67 340.8L512 291v140.8h117.33c-8.88 65.92-55 124.64-117.33 143V432H394.67zM896 128H128a64.19 64.19 0 0 0-64 64v512a64.19 64.19 0 0 0 64 64h192v64h384v-64h192a64.19 64.19 0 0 0 64-64V192a64.19 64.19 0 0 0-64-64z m0 576H128V192h768z" /></svg>