<?xml version="1.0" standalone="no"?><!DOCTYPE svg PUBLIC "-//W3C//DTD SVG 1.1//EN" "http://www.w3.org/Graphics/SVG/1.1/DTD/svg11.dtd"><svg class="icon" width="32px" height="32.00px" viewBox="0 0 1024 1024" version="1.1" xmlns="http://www.w3.org/2000/svg"><path fill="#ffffff" d="M42.666667 618.666667a277.162667 277.162667 0 0 1 130.730666-235.477334 341.376 341.376 0 0 1 677.205334 0 277.333333 277.333333 0 0 1-125.269334 512L298.666667 896c-143.189333-11.690667-256-131.328-256-277.333333z m676.181333 191.445333a192 192 0 0 0 86.613333-354.517333l-34.432-21.461334-5.12-40.192a256.042667 256.042667 0 0 0-507.861333 0l-5.12 40.192-34.346667 21.461334a192 192 0 0 0 86.570667 354.517333l7.381333 0.554667h398.933334l7.381333-0.554667zM554.666667 512h128l-170.666667 213.333333-170.666667-213.333333h128V341.333333h85.333334v170.666667z" /></svg>