<?xml version="1.0" standalone="no"?><!DOCTYPE svg PUBLIC "-//W3C//DTD SVG 1.1//EN" "http://www.w3.org/Graphics/SVG/1.1/DTD/svg11.dtd"><svg class="icon" width="32px" height="32.00px" viewBox="0 0 1024 1024" version="1.1" xmlns="http://www.w3.org/2000/svg"><path fill="#1296db" d="M512 449.142857l414.285714 0q6.857143 38.285714 6.857143 73.142857 0 124-52 221.428571t-148.285714 152.285714-220.857143 54.857143q-89.714286 0-170.857143-34.571429t-140-93.428571-93.428571-140-34.571429-170.857143 34.571429-170.857143 93.428571-140 140-93.428571 170.857143-34.571429q171.428571 0 294.285714 114.857143l-119.428571 114.857143q-70.285714-68-174.857143-68-73.714286 0-136.285714 37.142857t-99.142857 100.857143-36.571429 139.142857 36.571429 139.142857 99.142857 100.857143 136.285714 37.142857q49.714286 0 91.428571-13.714286t68.571429-34.285714 46.857143-46.857143 29.428571-49.714286 12.857143-44.571429l-249.142857 0 0-150.857143z" /></svg>