<?xml version="1.0" standalone="no"?><!DOCTYPE svg PUBLIC "-//W3C//DTD SVG 1.1//EN" "http://www.w3.org/Graphics/SVG/1.1/DTD/svg11.dtd"><svg class="icon" width="200px" height="200.00px" viewBox="0 0 1024 1024" version="1.1" xmlns="http://www.w3.org/2000/svg"><path fill="#333333" d="M916.489 145.36c3.783-0.619 7.33-0.335 10.64 0.735a21.886 21.886 0 0 1 6.221 3.176c1.963 1.407 3.855 3.347 5.382 5.67a21.923 21.923 0 0 1 3.333 8.531c0.481 2.682 0.402 5.83-0.393 8.963-1.34 5.198-4.487 9.85-9.24 12.974-14.179 9.319-36.376 20.131-58.7 28.655-1.6 0.611-3.189 1.206-4.767 1.786 0.992-1.23 1.978-2.48 2.954-3.75 13.437-17.455 23.412-35.93 27.105-50.486a21.92 21.92 0 0 1 9.177-12.932c2.73-1.794 5.637-2.892 8.595-3.374 2.681-0.482 5.828-0.403 8.962 0.392 3.516 1.089 5.561 2.112 7.424 3.449 4.731 3.466 7.838 8.467 8.83 14.017 0.547 3.339 0.394 6.425-0.363 9.362-4.372 17.165-14.004 36.397-26.16 54.35 8.04-3.067 14.707-6.033 18.686-8.282 19.573-11.062 41.177 10.894 29.8 30.285-21.638 36.88-52.001 69.74-83.279 93.653C890.084 647.92 657.446 895 358.477 895c-103.17 0-203.273-29.55-291.128-84.4-20.372-12.719-8.533-44.223 15.174-40.378 51.108 8.29 103.576 1.525 152.173-16.803 18.282-6.895 35.349-15.298 49.681-23.946-24.997-7.948-48.838-21.287-69.746-38.752-33.403-27.903-56.097-63.868-59.585-96.99-1.111-10.554 5.347-19.782 14.517-23.05-19.08-14.122-34.79-31.047-47.099-50.404-21.705-34.133-31.728-74.316-30.964-114.25 0.323-16.882 18.142-26.233 31.799-19.33-9.922-16.208-17.913-34.149-23.38-53.038-15.335-52.993-10.075-109.186 18.24-159.478 7.8-13.853 27.266-15.114 36.788-2.383C230.688 273.06 355.914 340.28 479.86 351.647a209.05 209.05 0 0 1-0.722-17.365C479.137 221.056 568.863 129 679.792 129c51.913 0 100.67 20.31 137.534 55.829 24.321-3.834 68.312-21.339 90.875-36.147a22.062 22.062 0 0 1 8.288-3.322z m-36.22 189.026zM868.966 215.85c-22.406 8.23-42.541 13.268-57.865 13.713-6.363 0.68-13.094-1.37-18.264-6.912C763.41 191.11 723.012 173 679.792 173c-86.372 0-156.655 72.108-156.655 161.282 0 12.194 1.353 24.301 3.994 36.134 3.067 13.744-7.39 26.792-21.472 26.792-134.184-3.605-271.911-67.693-362.686-170.475-9.857 30.937-9.848 63.383-0.787 94.695 10.868 37.555 34.198 70.117 61.11 87.185 17.864 11.33 11.005 38.88-10.085 40.513-13.806 1.069-30.81-0.025-46.342-3.332-2.775-0.59-5.49-1.245-8.14-1.966 3.724 18.77 10.65 36.777 20.864 52.838 20.064 31.553 52.09 54.953 97.68 67.778 18.936 5.327 21.896 30.93 4.674 40.438-13.232 7.305-29.854 10.485-49.153 10.913-1.591 0.036-3.19 0.051-4.79 0.048 7.668 13.97 19.685 28.454 34.835 41.11 27.675 23.118 61.434 36.86 93.786 36.86 18.708 0 28.879 21.869 16.825 36.176-18.929 22.467-58.246 47.634-103.226 64.599-25.34 9.557-51.663 16.366-78.426 20.026C231.018 838.474 294.114 851 358.478 851c275.376 0 489.266-228.805 478.072-511.861-0.121-1.708-0.137-2.545-0.105-3.381 0.027-2.089 0.027-2.089 0.019-2.245-0.293-8.611 3.223-15.651 9.299-19.915 12.326-8.65 24.722-19.093 36.47-30.849-11.62 2.628-23.26 4.649-34.1 5.74-23.797 2.394-33.784-29.548-12.863-41.135 9.165-5.076 21.89-16.861 33.695-31.504z m-32.46 118.432z" /></svg>