<?xml version="1.0" standalone="no"?><!DOCTYPE svg PUBLIC "-//W3C//DTD SVG 1.1//EN" "http://www.w3.org/Graphics/SVG/1.1/DTD/svg11.dtd"><svg class="icon" width="200px" height="200.00px" viewBox="0 0 1024 1024" version="1.1" xmlns="http://www.w3.org/2000/svg"><path fill="#333333" d="M832 128H192a64.19 64.19 0 0 0-64 64v640a64.19 64.19 0 0 0 64 64h640a64.19 64.19 0 0 0 64-64V192a64.19 64.19 0 0 0-64-64zM628.36 320c48.29 0 87 39.82 87 89.14s-38.69 89.14-87 89.14-87.27-39.82-87.27-89.14S580.07 320 628.36 320z m-232.73 0c48.29 0 87 39.82 87 89.14s-38.69 89.14-87 89.14-87.27-39.82-87.27-89.14S347.35 320 395.64 320z m203.64 416H192v-74.29c0-69.23 135.85-104 203.64-104s203.64 34.77 203.64 104zM832 736H657.45v-74.29c0-44-23.56-77.55-57.31-102.51 10.18-0.89 19.78-1.49 28.22-1.49 67.78 0 203.64 34.77 203.64 104z" /></svg>