<?xml version="1.0" standalone="no"?><!DOCTYPE svg PUBLIC "-//W3C//DTD SVG 1.1//EN" "http://www.w3.org/Graphics/SVG/1.1/DTD/svg11.dtd"><svg class="icon" width="200px" height="200.00px" viewBox="0 0 1024 1024" version="1.1" xmlns="http://www.w3.org/2000/svg"><path label-width="8em" d="M392.512177 584.89665c0 0 107.519841-92.415863 301.119554-72.895892 6.46399 0.639999 12.735981 1.343998 18.751972 2.047997 27.775959-37.119945 55.935917-76.799886 83.455876-117.119827l-267.071605 1.279998c0 0 112.895833-101.31185 290.36757-81.727879 10.175985 1.151998 19.391971 2.367996 27.967959 3.647995 25.471962-39.167942 49.663926-77.695885 71.487894-113.727832l-206.975694-5.503992c0 0 141.247791-85.631873 255.231622-76.607887 41.791938-74.23989 65.023904-124.607816 54.719919-124.287816-767.102864 24.895963-1021.566488 1023.998484-1021.566488 1023.998484l73.471891 0c54.655919-108.22384 177.407737-307.583545 177.407737-307.583545s121.85582 47.999929 259.839615 3.583995c35.199948-11.327983 88.255869-63.935905 147.007782-135.935799l-265.215607 0.831999z" /></svg>