<?xml version="1.0" standalone="no"?><!DOCTYPE svg PUBLIC "-//W3C//DTD SVG 1.1//EN" "http://www.w3.org/Graphics/SVG/1.1/DTD/svg11.dtd"><svg class="icon" width="32px" height="32.00px" viewBox="0 0 1024 1024" version="1.1" xmlns="http://www.w3.org/2000/svg"><path fill="#1296db" d="M788.79307 675.118078c-11.260461 29.55513-28.782533 56.595996-51.013861 80.108502 48.573275 14.69263 36.682457 40.140209 36.682457 40.140209 21.577434 11.743462 20.202111 88.054475-99.127671 86.704734-79.551824-0.89437-113.286136-23.052019-127.010719-37.748742-10.150174 0.968048-20.396539 1.61887-30.810726 1.61887-12.71151 0-25.154913-0.914836-37.431517-2.318812-13.268188 14.668071-46.809095 37.529755-127.543861 38.448684-119.15889 1.353834-120.537284-74.961272-98.981339-86.704734 0 0-13.000082-27.379581 41.998533-41.758056-23.536043-25.325805-41.538045-54.710043-52.314483-86.801948-49.879014 87.863117-73.948199 29.652344-70.345138-37.626969 3.187599-59.760059 56.304354-127.641075 70.052472-144.264685-2.537799-6.261611-4.058432-13.023618-4.058432-20.132526 0-14.570857 5.848195-27.810393 15.416108-37.770232-0.459464-2.415003-0.748037-4.855588-0.748037-7.392364 0-14.041808 7.416923-26.318412 18.584264-33.397644-0.073678-2.12643-0.268106-4.204765-0.268106-6.356778 0-133.683698 109.97574-242.062058 245.64056-242.062058 135.663796 0 245.616 108.382453 245.616 242.062058 0 4.062526-0.268106 8.048303-0.459464 12.037151 7.080256 7.176446 11.479449 16.916275 11.479449 27.717272 0 2.680039-0.292666 5.314029-0.821715 7.851828 9.470699 9.885138 15.465227 22.836101 15.465227 37.312814 0 7.17747-1.520633 13.96813-4.107551 20.275789 13.869892 16.888645 66.600861 84.768639 69.7639 144.528698C857.930707 695.031617 835.479369 751.98577 788.79307 675.118078L788.79307 675.118078zM788.79307 675.118078" /></svg>