<?xml version="1.0" standalone="no"?><!DOCTYPE svg PUBLIC "-//W3C//DTD SVG 1.1//EN" "http://www.w3.org/Graphics/SVG/1.1/DTD/svg11.dtd"><svg class="icon" width="32px" height="32.00px" viewBox="0 0 1024 1024" version="1.1" xmlns="http://www.w3.org/2000/svg"><path fill="#1296db" d="M681.398108 955.388343c-12.612249 0-25.286919-1.066285-37.662785-3.184529-46.306652-7.890714-85.020372-27.357068-110.574375-55.326073-13.866822 4.612041-30.149671 3.090385-40.314171-0.156566-25.428136 29.569456-69.412906 50.039673-120.691803 55.623855-90.809215 9.834996-162.810063-20.659529-169.994696-69.412906-5.945409-39.812751 36.408211-71.075779 81.820494-89.130993-19.921725-24.988114-35.106566-53.930283-43.74941-83.200934-24.722054 29.67895-45.977147 48.581462-70.087265 42.760896-8.03193-1.913583-19.326161-7.937786-27.624151-25.75764-16.439414-35.231409-16.078187-108.393709 16.972557-174.558641 13.364379-26.761504 32.000831-48.690956 47.529503-65.742307-5.881964-12.548804-11.576663-27.748994-11.576663-41.22389 0-22.274306 9.725502-41.694611 28.251438-56.691163-1.662873-12.706393-2.463098-24.424272-2.463098-35.560914 0-161.100118 127.98593-287.297308 291.376207-287.297308 161.695682 0 293.242717 128.880299 293.242717 287.297308l0.047072 7.843642c0.062422 8.126075 0.141216 17.004279-0.376577 25.505907 15.184841 11.105942 24.251334 26.729781 24.251334 58.902528 0 13.505595-1.160429 27.937283-7.921413 39.216163 13.035898 18.478863 27.38879 41.349757 40.314171 61.945841l2.77623 4.423753c31.027667 49.397037 34.165124 135.405923 16.156982 176.441525-8.079002 18.400069-19.043728 23.984251-26.839275 25.428136-3.670599 0.674359-7.199982 0.988514-10.604522 0.988514 0 0 0 0-0.01535 0-27.13808 0-45.003983-18.85544-60.659545-41.003879-9.459442 28.28316-24.612561 57.145511-42.400692 80.455403 53.082986 21.741163 80.707137 52.173267 76.518744 85.255733C811.628148 922.635381 753.289462 955.388343 681.398108 955.388343zM541.883611 856.015078l8.659217 11.544941c20.062941 26.745131 55.075363 45.553499 98.589412 52.988842 10.588149 1.787716 21.458731 2.713808 32.266891 2.713808 57.616232 0 100.958366-25.333992 103.82874-48.063669 2.51017-19.765159-27.65485-42.839691-76.831876-58.793034l-24.502044-7.953136 17.929348-18.510586c28.658713-29.569456 52.643987-78.05575 58.337663-117.883851l5.851265-40.910759 32.251541 47.529503c15.403828 23.466458 28.705785 43.718711 45.38056 43.718711 0.01535 0 0.01535 0 0.01535 0 1.537006 0 3.121084-0.156566 4.768607-0.455371 11.231809-8.203846 22.902616-99.70277-10.682293-153.178705l-2.792603-4.439102c-15.247262-24.313755-32.533974-51.859112-46.604434-70.510914l-10.541077-13.960966 14.808264-9.318226c4.376681-2.76088 5.03569-16.501836 5.03569-24.454972 0-27.059286-6.760984-30.918173-16.98893-36.737716l-9.474792-5.395894 1.521656-10.80816c1.254573-8.94165 1.160429-20.769023 1.066285-31.184233l-0.047072-8.126075c0-140.707672-117.130697-255.171634-261.117043-255.171634-145.366785 0-259.250532 112.079658-259.250532 255.171634 0 12.251022 1.12973 25.458835 3.482311 40.361243l1.600451 10.290367-8.721639 5.662977c-14.902408 9.710153-22.149463 21.458731-22.149463 35.93749 0 7.670703 4.376681 19.968797 13.004175 36.564777l5.207605 10.007935-7.670703 8.29799c-16.188704 17.505699-36.314067 39.294958-49.883107 66.447365-26.776853 53.616128-29.616528 117.522624-16.894785 145.978722 2.964518 6.65149 5.693676 8.580422 6.274914 8.736988 0.031722 0 0.062422 0 0.109494 0 11.827373 0 31.278377-23.906479 50.086745-47.043433l33.098839-40.392966 4.203742 37.882795c4.454452 40.329521 26.776853 85.272106 58.228169 117.318986l18.697851 19.043728-25.584702 7.608282c-50.071396 14.870686-85.538165 41.380456-82.511225 61.695131 4.297886 29.349445 65.506946 49.726541 134.731564 42.180681 47.859008-5.207605 87.295182-24.674982 105.476263-52.079122l5.082762-7.655354 12.423961 0.674359 4.220115 2.007727c4.314259 2.086521 21.019733 7.576559 33.600259 0.047072L541.883611 856.015078z" /></svg>