<?xml version="1.0" standalone="no"?><!DOCTYPE svg PUBLIC "-//W3C//DTD SVG 1.1//EN" "http://www.w3.org/Graphics/SVG/1.1/DTD/svg11.dtd"><svg class="icon" width="200px" height="200.00px" viewBox="0 0 1024 1024" version="1.1" xmlns="http://www.w3.org/2000/svg"><path label-width="8em" d="M832 736v-64a80 80 0 0 0-160 0v64a64.19 64.19 0 0 0-64 64v96a64.19 64.19 0 0 0 64 64h160a64.19 64.19 0 0 0 64-64v-96a64.19 64.19 0 0 0-64-64z m-32 0h-96v-64a48 48 0 0 1 96 0zM934.28 442.85l-97.59-19.52a32.13 32.13 0 0 1-23.86-20.62Q808 389.37 802 376.59a32.15 32.15 0 0 1 2.28-31.48l55.21-82.81a32 32 0 0 0-4-40.38l-53.41-53.41a32 32 0 0 0-40.38-4l-82.81 55.21a32.15 32.15 0 0 1-31.48 2.28q-12.77-6-26.13-10.82a32.13 32.13 0 0 1-20.62-23.86l-19.52-97.6A32 32 0 0 0 549.77 64h-75.54a32 32 0 0 0-31.38 25.72l-19.52 97.59a32.13 32.13 0 0 1-20.62 23.86Q389.37 216 376.59 222a32.15 32.15 0 0 1-31.48-2.28l-82.81-55.21a32 32 0 0 0-40.38 4l-53.41 53.41a32 32 0 0 0-4 40.38l55.21 82.81a32.15 32.15 0 0 1 2.28 31.48q-6 12.77-10.82 26.13a32.13 32.13 0 0 1-23.86 20.62l-97.6 19.51A32 32 0 0 0 64 474.23v75.53a32 32 0 0 0 25.72 31.38l97.59 19.52a32.13 32.13 0 0 1 23.86 20.62Q216 634.63 222 647.41a32.15 32.15 0 0 1-2.28 31.48l-55.21 82.81a32 32 0 0 0 4 40.38l53.41 53.41a32 32 0 0 0 40.38 4l82.81-55.21a32.15 32.15 0 0 1 31.48-2.28q12.77 6 26.13 10.82a32.13 32.13 0 0 1 20.62 23.86l19.52 97.59A32 32 0 0 0 474.23 960h75.53A32 32 0 0 0 576 946.32v-253.2a191.7 191.7 0 1 1 124.24-143A219.59 219.59 0 0 1 752 544c52.64 0 99.88 18.25 132.13 47.17l50.15-10a32 32 0 0 0 25.72-31.4v-75.54a32 32 0 0 0-25.72-31.38z" /></svg>