<?xml version="1.0" standalone="no"?><!DOCTYPE svg PUBLIC "-//W3C//DTD SVG 1.1//EN" "http://www.w3.org/Graphics/SVG/1.1/DTD/svg11.dtd"><svg class="icon" width="32px" height="32.00px" viewBox="0 0 1024 1024" version="1.1" xmlns="http://www.w3.org/2000/svg"><path fill="#ffffff" d="M559.786667 726.314667l-179.157334-97.706667a170.666667 170.666667 0 1 1 0-233.173333l179.2-97.706667a170.666667 170.666667 0 1 1 40.917334 74.88l-179.2 97.706667a171.008 171.008 0 0 1 0 83.370666l179.157333 97.706667a170.666667 170.666667 0 1 1-40.917333 74.88zM256 597.333333a85.333333 85.333333 0 1 0 0-170.666666 85.333333 85.333333 0 0 0 0 170.666666z m469.333333-256a85.333333 85.333333 0 1 0 0-170.666666 85.333333 85.333333 0 0 0 0 170.666666z m0 512a85.333333 85.333333 0 1 0 0-170.666666 85.333333 85.333333 0 0 0 0 170.666666z" /></svg>