<?xml version="1.0" standalone="no"?><!DOCTYPE svg PUBLIC "-//W3C//DTD SVG 1.1//EN" "http://www.w3.org/Graphics/SVG/1.1/DTD/svg11.dtd"><svg class="icon" width="200px" height="200.00px" viewBox="0 0 1024 1024" version="1.1" xmlns="http://www.w3.org/2000/svg"><path fill="#333333" d="M960 549.77v-75.54a32 32 0 0 0-25.72-31.38l-97.59-19.52a32.13 32.13 0 0 1-23.86-20.62Q808 389.37 802 376.59a32.15 32.15 0 0 1 2.28-31.48l55.21-82.81a32 32 0 0 0-4-40.38l-53.41-53.41a32 32 0 0 0-40.38-4l-82.81 55.21a32.15 32.15 0 0 1-31.48 2.28q-12.77-6-26.13-10.82a32.13 32.13 0 0 1-20.62-23.86l-19.52-97.6A32 32 0 0 0 549.77 64h-75.54a32 32 0 0 0-31.38 25.72l-19.52 97.59a32.13 32.13 0 0 1-20.62 23.86Q389.37 216 376.59 222a32.15 32.15 0 0 1-31.48-2.28l-82.81-55.21a32 32 0 0 0-40.38 4l-53.41 53.41a32 32 0 0 0-4 40.38l55.21 82.81a32.15 32.15 0 0 1 2.28 31.48q-6 12.77-10.82 26.13a32.13 32.13 0 0 1-23.86 20.62l-97.6 19.52A32 32 0 0 0 64 474.23v75.53a32 32 0 0 0 25.72 31.38l97.59 19.52a32.13 32.13 0 0 1 23.86 20.62Q216 634.63 222 647.41a32.15 32.15 0 0 1-2.28 31.48l-55.21 82.81a32 32 0 0 0 4 40.38l53.41 53.41a32 32 0 0 0 40.38 4l82.81-55.21a32.15 32.15 0 0 1 31.48-2.28q12.77 6 26.13 10.82a32.13 32.13 0 0 1 20.62 23.86l19.52 97.59A32 32 0 0 0 474.23 960h75.53a32 32 0 0 0 31.38-25.72l19.52-97.59a32.13 32.13 0 0 1 20.62-23.86Q634.63 808 647.41 802a32.15 32.15 0 0 1 31.48 2.28l82.81 55.21a32 32 0 0 0 40.38-4l53.41-53.41a32 32 0 0 0 4-40.38l-55.21-82.81a32.15 32.15 0 0 1-2.28-31.48q6-12.77 10.82-26.13a32.13 32.13 0 0 1 23.86-20.62l97.59-19.52A32 32 0 0 0 960 549.77z m-312.24 98A192 192 0 1 1 704 512a190.74 190.74 0 0 1-56.24 135.76z" /></svg>