<?xml version="1.0" standalone="no"?><!DOCTYPE svg PUBLIC "-//W3C//DTD SVG 1.1//EN" "http://www.w3.org/Graphics/SVG/1.1/DTD/svg11.dtd"><svg class="icon" width="200px" height="200.00px" viewBox="0 0 1024 1024" version="1.1" xmlns="http://www.w3.org/2000/svg"><path fill="#333333" d="M492.76774232 142.36462285C294.32382748 142.36462285 133.49597386 282.08142168 133.49597386 454.42439607c0 105.55527385 61.41397752 199.59542692 153.91878115 257.17103085v96.72701458c0 13.05047024 9.21209663 20.72721742 19.57570534 20.72721743 3.8383736 0 7.67674719-1.15151208 10.36360871-2.68686153l97.87852664-65.2523511c24.94942836 5.37372304 49.51501936 6.52523511 75.61595983 6.52523511 198.44391484 0 358.88793109-139.71679884 358.88793111-312.05977325 1.9191868-173.49448648-158.52482947-313.21128533-356.96874432-313.21128531z m0 573.06917766c-22.26256685 0-44.52513369-2.68686151-66.40386319-6.52523511l-10.36360869-2.68686152c-6.52523511-1.15151208-13.05047024 0-19.57570533 3.83837361l-9.21209664 6.52523511-46.82815786 31.47466347v-50.66653145c0-9.21209663-5.37372304-18.42419326-13.05047022-22.26256684l-13.05047021-7.67674719C233.29368734 619.0906233 184.93018002 539.6362899 184.93018002 455.95974551c0-143.55517246 137.02993734-259.85789236 306.68605022-259.85789235S798.30228046 312.40457308 798.30228046 455.95974551c1.15151208 142.01982302-137.41377471 259.474055-305.53453814 259.47405502zM288.95010445 463.6364927c0 23.7979163 19.19186798 42.98978425 42.98978426 42.98978426 23.7979163 0 42.98978425-19.19186798 42.98978426-42.98978426 0-23.7979163-19.19186798-42.98978425-42.98978426-42.98978425-23.7979163 0-42.98978425 19.19186798-42.98978426 42.98978425z m163.13087778 0c0 23.7979163 19.19186798 42.98978425 42.98978425 42.98978426 23.7979163 0 42.98978425-19.19186798 42.98978425-42.98978426 0-23.7979163-19.19186798-42.98978425-42.98978425-42.98978425-23.7979163 0-42.98978425 19.19186798-42.98978427 42.98978425z m158.14099209 0c0 23.7979163 19.19186798 42.98978425 42.98978427 42.98978426 23.7979163 0 42.98978425-19.19186798 42.98978426-42.98978426 0-23.7979163-19.19186798-42.98978425-42.98978426-42.98978425-23.7979163 0-42.98978425 19.19186798-42.98978425 42.98978425z"  /><path fill="#333333" d="M857.41323382 531.19186798c-0.76767473-1.15151208-1.53534943-1.9191868-2.30302415-2.68686153-5.75756039 21.49489214-13.81814495 41.83827217-23.7979163 61.41397752 0.38383735 0.76767473 0.76767473 1.9191868 1.53534945 2.68686151 6.90907247 15.73733174 10.3636087 32.62617557 10.3636087 50.28269409 0 46.82815786-27.25245252 91.73712892-72.54526094 118.98958144l-7.29290983 4.22221095c-4.22221095 2.30302416-7.29290983 7.29290983-7.29290982 12.28279551v28.40396459l-26.48477781-17.65651853-4.98988568-3.83837359c-3.8383736-2.30302416-7.29290983-3.07069889-11.13128342-2.30302416l-5.75756039 1.53534944c-12.66663287 2.30302416-24.94942836 3.8383736-37.23222387 3.8383736-29.93931404 0-57.95944128-6.52523511-82.52503229-18.04035589-24.56559101 5.75756039-49.89885674 9.21209663-75.61595982 10.36360871 40.6867601 35.31303708 97.11085195 56.80792919 159.29250419 56.8079292 16.50500645 0 32.24233819-0.76767473 47.59583257-4.22221095l61.79781488 41.07059744c1.53534943 0.76767473 4.22221095 1.53534943 6.52523511 1.53534943 6.52523511 0 12.28279551-4.98988568 12.28279549-13.0504702v-60.64630281c58.34327864-36.0807118 97.11085195-95.19166516 97.11085195-161.9793657-0.76767473-39.91908538-14.96965702-77.91898397-39.53524802-109.00981007z"  /></svg>