<?xml version="1.0" standalone="no"?><!DOCTYPE svg PUBLIC "-//W3C//DTD SVG 1.1//EN" "http://www.w3.org/Graphics/SVG/1.1/DTD/svg11.dtd"><svg class="icon" width="32px" height="32.00px" viewBox="0 0 1024 1024" version="1.1" xmlns="http://www.w3.org/2000/svg"><path fill="#ffffff" d="M401.066667 682.666667H128a85.333333 85.333333 0 0 1-85.333333-85.333334v-89.770666a85.333333 85.333333 0 0 1 6.4-32.512L181.162667 154.453333A42.666667 42.666667 0 0 1 220.586667 128H938.666667a42.666667 42.666667 0 0 1 42.666666 42.666667v426.666666a42.666667 42.666667 0 0 1-42.666666 42.666667h-148.565334a42.666667 42.666667 0 0 0-34.858666 18.048l-232.661334 329.642667a21.333333 21.333333 0 0 1-26.965333 6.784L418.218667 955.733333a106.666667 106.666667 0 0 1-55.68-121.728L401.066667 682.666667z m324.266666-110.421334V213.333333H249.173333L128 507.562667V597.333333h273.066667a85.333333 85.333333 0 0 1 82.688 106.368l-38.528 151.381334a21.333333 21.333333 0 0 0 11.136 24.362666l28.202666 14.08 200.96-284.672c10.666667-15.104 24.32-27.477333 39.808-36.608zM810.666667 554.666667h85.333333V213.333333h-85.333333v341.333334z" /></svg>