<?xml version="1.0" standalone="no"?><!DOCTYPE svg PUBLIC "-//W3C//DTD SVG 1.1//EN" "http://www.w3.org/Graphics/SVG/1.1/DTD/svg11.dtd"><svg class="icon" width="32px" height="32.00px" viewBox="0 0 1024 1024" version="1.1" xmlns="http://www.w3.org/2000/svg"><path fill="#ffffff" d="M622.933333 341.333333H896a85.333333 85.333333 0 0 1 85.333333 85.333334v89.770666a85.333333 85.333333 0 0 1-6.4 32.512l-132.053333 320.64a42.666667 42.666667 0 0 1-39.466667 26.410667H85.333333a42.666667 42.666667 0 0 1-42.666666-42.666667V426.666667a42.666667 42.666667 0 0 1 42.666666-42.666667h148.565334a42.666667 42.666667 0 0 0 34.858666-18.048L501.418667 36.266667a21.333333 21.333333 0 0 1 26.965333-6.784l77.397333 38.698666a106.666667 106.666667 0 0 1 55.68 121.728L622.933333 341.333333zM298.666667 451.754667V810.666667h476.16L896 516.437333V426.666667h-273.066667a85.333333 85.333333 0 0 1-82.688-106.368l38.528-151.381334a21.333333 21.333333 0 0 0-11.136-24.362666l-28.202666-14.08-200.96 284.672c-10.666667 15.104-24.32 27.477333-39.808 36.608zM213.333333 469.333333H128v341.333334h85.333333v-341.333334z" /></svg>