<?xml version="1.0" standalone="no"?><!DOCTYPE svg PUBLIC "-//W3C//DTD SVG 1.1//EN" "http://www.w3.org/Graphics/SVG/1.1/DTD/svg11.dtd"><svg class="icon" width="200px" height="200.00px" viewBox="0 0 1024 1024" version="1.1" xmlns="http://www.w3.org/2000/svg"><path fill="#333333" d="M1010 657.8l-131.4-131.7c-9-9.1-21.3-14.2-34.2-14.2L630 511.9c-29.8 0-54 24.1-54 53.8L576 968.2c0 29.7 24.2 53.8 54 53.8l340 0c29.8 0 54-24.1 54-53.8L1024 691.6C1024 679 1019 666.8 1010 657.8zM960 958l-320 0 0-382 197.9 0L960 698.3 960 958zM691.7 704l91.9 0c17.7 0 32-14.3 32-32s-14.3-32-32-32l-91.9 0c-17.7 0-32 14.3-32 32S674 704 691.7 704zM659.7 768c0 17.7 14.3 32 32 32l206.9 0c17.7 0 32-14.3 32-32s-14.3-32-32-32l-206.9 0C674 736 659.7 750.3 659.7 768zM898.6 832l-206.9 0c-17.7 0-32 14.3-32 32s14.3 32 32 32l206.9 0c17.7 0 32-14.3 32-32S916.2 832 898.6 832zM484 704l-68 0 0-64 64.9 0c17.7 0 32-14.3 32-32s-14.3-32-32-32L100.8 576c-20.3 0-36.8-16.5-36.8-36.8l0-374.5c0-20.3 16.5-36.8 36.8-36.8l566.5 0c20.3 0 36.8 16.5 36.8 36.8L704.1 418.5c0 17.7 14.3 32 32 32s32-14.3 32-32l0-253.8c0-55.6-45.2-100.8-100.8-100.8L100.8 63.9C45.2 64 0 109.2 0 164.7L0 539.2c0 55.6 45.2 100.8 100.8 100.8L352 640l0 64L224 704c-17.7 0-32 14.3-32 32s14.3 32 32 32l260 0c17.7 0 32-14.3 32-32S501.7 704 484 704z" /></svg>