<?xml version="1.0" standalone="no"?><!DOCTYPE svg PUBLIC "-//W3C//DTD SVG 1.1//EN" "http://www.w3.org/Graphics/SVG/1.1/DTD/svg11.dtd"><svg class="icon" width="200px" height="200.00px" viewBox="0 0 1024 1024" version="1.1" xmlns="http://www.w3.org/2000/svg"><path fill="#333333" d="M536.42 510.46A195.07 195.07 0 0 1 512 512a192 192 0 1 1 137.69-58.21 257.16 257.16 0 0 1 83.1-4.17A254.74 254.74 0 0 0 768 320c0-141.38-114.62-256-256-256S256 178.62 256 320a255.76 255.76 0 0 0 116 214.32C193.13 593.12 64 761.48 64 960h64c0-201.84 155.72-367.3 353.57-382.81a257.17 257.17 0 0 1 54.85-66.73zM935.46 813.47a256.53 256.53 0 0 1-47.41 68.45A385.67 385.67 0 0 1 896 960h64a447.31 447.31 0 0 0-24.54-146.53zM158.15 810.55A384 384 0 0 1 896 960h64c0-198.52-129.13-366.88-308-425.68A255.76 255.76 0 0 0 768 320c0-141.38-114.62-256-256-256S256 178.62 256 320a255.76 255.76 0 0 0 116 214.32C193.13 593.12 64 761.48 64 960h64a381.54 381.54 0 0 1 30.15-149.45zM320 320a192 192 0 1 1 56.24 135.76A190.74 190.74 0 0 1 320 320z" /></svg>